<?xml version="1.0" standalone="no"?>
<!DOCTYPE svg PUBLIC "-//W3C//DTD SVG 20010904//EN"
 "http://www.w3.org/TR/2001/REC-SVG-20010904/DTD/svg10.dtd">
<svg version="1.0" xmlns="http://www.w3.org/2000/svg"
 width="104.000000pt" height="104.000000pt" viewBox="0 0 104.000000 104.000000"
 preserveAspectRatio="xMidYMid meet">
<metadata>
Created by potrace 1.11, written by Peter Selinger 2001-2013
</metadata>
<g transform="translate(0.000000,104.000000) scale(0.100000,-0.100000)"
fill="#000000" stroke="none">
<path d="M374 1011 c-78 -29 -137 -67 -188 -121 l-47 -50 31 -45 c26 -38 29
-46 16 -51 -9 -3 -16 -12 -16 -18 0 -18 43 -56 63 -56 21 0 22 -16 1 -24 -31
-12 -41 -5 -85 59 -41 61 -59 77 -59 56 0 -5 23 -42 50 -82 49 -71 53 -95 14
-87 -10 2 -35 28 -56 57 -46 66 -52 40 -7 -30 17 -27 28 -53 24 -59 -9 -15
-36 -12 -57 7 -16 15 -18 15 -18 0 0 -35 72 -50 89 -18 6 10 22 21 36 23 24 5
25 3 26 -46 0 -38 3 -46 9 -31 5 11 9 37 9 57 1 39 41 98 67 98 36 0 3 36 -34
38 -24 1 -52 18 -52 32 0 7 117 60 132 60 15 0 98 -139 98 -166 0 -15 -18 -55
-40 -89 -62 -94 -79 -175 -39 -175 11 0 34 -8 50 -17 26 -16 29 -16 47 0 27
25 97 23 115 -3 l14 -20 26 20 c14 11 37 20 52 20 21 0 26 4 21 16 -3 9 -6 28
-6 43 0 15 -16 54 -36 87 -72 117 -71 111 -40 169 14 28 39 67 55 86 l29 34
61 -29 c33 -17 61 -33 61 -37 0 -14 -42 -38 -57 -32 -8 3 -19 0 -24 -8 -12
-20 -11 -29 4 -29 30 0 60 -49 65 -105 2 -31 9 -58 14 -61 6 -4 9 13 7 45 -3
40 -1 50 9 46 8 -3 20 -5 28 -5 8 0 14 -7 14 -15 0 -23 50 -31 82 -12 31 18
34 13 18 -43 -5 -20 -26 -51 -45 -70 -33 -32 -48 -80 -25 -80 6 0 10 -22 10
-50 0 -27 -4 -50 -10 -50 -5 0 -10 -16 -10 -35 l0 -35 -105 0 -105 0 0 35 c0
30 -3 35 -24 35 -13 0 -29 7 -36 15 -7 8 -18 15 -25 15 -7 0 -18 -7 -25 -15
-17 -21 -108 -21 -116 0 -8 19 -28 19 -44 0 -7 -8 -26 -15 -43 -15 -28 0 -29
-1 -24 -35 l6 -35 -85 0 c-81 0 -84 -1 -74 -20 16 -30 133 -109 197 -132 82
-30 225 -30 308 0 210 77 350 302 330 530 -3 40 -9 82 -14 94 -7 20 -8 19 -14
-9 -8 -43 -53 -93 -83 -93 -34 0 -31 20 13 86 27 41 41 54 55 51 15 -4 18 -1
12 16 -33 108 -141 230 -252 285 -72 35 -81 37 -186 40 -89 2 -121 -1 -162
-17z m-111 -188 l18 -32 -30 -16 c-31 -15 -31 -15 -51 17 -31 51 -25 71 19 66
16 -2 32 -15 44 -35z m535 10 c2 -12 -4 -33 -13 -47 -16 -24 -18 -25 -46 -10
-35 17 -35 23 -8 58 26 33 62 32 67 -1z m90 -26 c4 -18 -66 -135 -93 -157 -15
-12 -55 -5 -55 10 0 4 11 11 25 14 14 4 32 18 41 32 16 23 16 26 -1 38 -17 12
-17 15 10 50 30 40 67 46 73 13z m50 -61 c6 -27 -84 -156 -107 -156 -11 0 -23
4 -26 10 -5 9 56 109 93 153 18 21 36 18 40 -7z"/>
<path d="M40 445 c0 -13 10 -54 22 -91 20 -62 23 -66 26 -36 2 21 9 32 19 32
25 0 6 51 -33 86 -33 31 -34 31 -34 9z"/>
<path d="M320 300 c0 -11 6 -20 14 -20 7 0 16 9 19 20 4 15 0 20 -14 20 -12 0
-19 -7 -19 -20z"/>
<path d="M469 311 c7 -5 10 -14 7 -20 -5 -7 2 -11 16 -11 17 0 24 6 24 20 0
16 -7 20 -31 20 -21 0 -26 -3 -16 -9z"/>
<path d="M629 311 c7 -5 10 -14 7 -20 -5 -7 1 -11 13 -11 14 0 21 6 21 20 0
15 -7 20 -27 20 -20 0 -24 -3 -14 -9z"/>
</g>
</svg>
